<svg xmlns="http://www.w3.org/2000/svg" width="256" height="256" viewBox="0 0 100 100"><rect width="100" height="100" rx="20" fill="#120e30"></rect><path fill="#bbaeae" d="M23.63 87.19L23.63 87.19Q23.63 80.55 26.12 74.54Q28.61 68.54 32.37 62.92Q36.13 57.31 40.53 51.93Q44.92 46.56 48.73 41.24Q52.54 35.92 55.03 30.60Q57.52 25.27 57.52 19.71L57.52 19.71Q57.52 19.71 57.47 19.56Q57.42 19.42 57.42 19.22L57.42 19.22Q57.32 19.02 57.32 18.83L57.32 18.83Q56.45 17.95 54.69 17.36Q52.93 16.78 50.88 16.29Q48.83 15.80 46.68 15.51Q44.53 15.22 42.72 15.07Q40.92 14.92 39.75 14.83Q38.57 14.73 38.57 14.73L38.57 14.73Q33.98 14.73 30.71 15.46Q27.44 16.19 24.66 16.97Q21.88 17.76 19.19 18.44Q16.50 19.12 13.09 19.12L13.09 19.12Q10.94 19.12 10.06 17.41Q9.18 15.70 9.18 13.65L9.18 13.65Q9.18 11.70 11.13 10.43Q13.09 9.16 16.16 8.62Q19.24 8.09 22.75 7.94Q26.27 7.79 29.25 7.84Q32.23 7.89 34.23 8.09Q36.23 8.28 36.33 8.28L36.33 8.28Q37.30 8.28 39.70 8.28Q42.09 8.28 44.73 8.33Q47.36 8.38 49.76 8.43Q52.15 8.48 53.13 8.48L53.13 8.48Q54.98 8.97 57.52 9.55Q60.06 10.14 62.40 11.11Q64.75 12.09 66.36 13.65Q67.97 15.22 67.97 17.46L67.97 17.46Q67.97 22.83 65.82 27.96Q63.67 33.09 60.35 38.12Q57.03 43.15 52.98 48.13Q48.93 53.11 45.17 58.23Q41.41 63.36 38.48 68.68Q35.55 74.01 34.28 79.57L34.28 79.57L38.57 79.57Q45.12 79.57 51.61 79.18Q58.11 78.79 64.65 78.35Q71.19 77.91 77.73 77.52Q84.28 77.13 90.82 77.13L90.82 77.13L90.82 83.87Q86.91 84.06 81.98 84.84Q77.05 85.63 71.48 86.51Q65.92 87.38 60.01 88.41Q54.10 89.43 48.29 90.26Q42.48 91.09 37.01 91.63Q31.54 92.17 27.05 92.17L27.05 92.17Q25.78 92.17 25.15 91.68Q24.51 91.19 24.12 90.46Q23.73 89.73 23.68 88.85Q23.63 87.97 23.63 87.19Z"></path></svg>